<svg xmlns="http://www.w3.org/2000/svg" width="71" height="71" viewBox="0 0 96.979 96.979" xml:space="preserve"><path d="M59.07 46.021c4.576-3.373 7.31-8.754 7.31-14.393 0-9.863-8.025-17.889-17.89-17.889-9.864 0-17.889 8.025-17.889 17.889 0 5.717 2.66 10.959 7.297 14.385-18.244 6.451-21.092 28.71-21.531 35.378a1.739 1.739 0 0 0 1.729 1.849h60.788a1.737 1.737 0 0 0 1.731-1.849c-.44-6.655-3.295-28.88-21.545-35.37z"/><path d="M82.761 46.861c3.02-2.227 4.821-5.779 4.821-9.502 0-6.508-5.297-11.805-11.807-11.805-1.867 0-3.627.447-5.199 1.223a22.48 22.48 0 0 1 .529 4.852c0 4.68-1.484 9.219-4.137 12.988 10.448 6.572 14.981 18.07 16.944 26.81h11.923c.315 0 .618-.131.836-.361a1.15 1.15 0 0 0 .305-.857c-.288-4.397-2.171-19.065-14.215-23.348zM29.976 44.617c-2.654-3.748-4.104-8.238-4.104-12.988 0-1.668.188-3.287.531-4.852a11.72 11.72 0 0 0-5.199-1.223c-6.51 0-11.807 5.297-11.807 11.805 0 3.775 1.754 7.236 4.816 9.496C2.172 51.113.291 65.806.002 70.207a1.139 1.139 0 0 0 1.143 1.217H13.06c1.959-8.739 6.483-20.245 16.916-26.807z"/></svg>