<svg height="75" width="75" xmlns="http://www.w3.org/2000/svg" viewBox="0 0 480 480" xml:space="preserve"><path d="M424 104.668H296c-4.424 0-8 3.584-8 8s3.576 8 8 8h128c4.424 0 8-3.584 8-8s-3.576-8-8-8zM424 56.668H216c-4.416 0-8 3.584-8 8s3.584 8 8 8h208c4.424 0 8-3.584 8-8s-3.576-8-8-8zM432 160.668c0-4.416-3.576-8-8-8H216c-4.416 0-8 3.584-8 8s3.584 8 8 8h208c4.424 0 8-3.584 8-8z"/><path d="M456 .668H24c-13.232 0-24 10.768-24 24v336c0 13.232 10.768 24 24 24h288c4.424 0 8-3.584 8-8s-3.576-8-8-8H24c-4.408 0-8-3.592-8-8v-336c0-4.408 3.592-8 8-8h432c4.416 0 8 3.592 8 8v192c0 4.416 3.576 8 8 8s8-3.584 8-8v-192c0-13.232-10.768-24-24-24z"/><path d="M391.76 198.372c-48.392 0-87.76 39.336-87.76 87.68 0 27.232 12.472 51.608 32 67.72v117.56a8.003 8.003 0 0 0 4.224 7.056 8.003 8.003 0 0 0 8.208-.4L392 448.948l43.56 29.04a7.949 7.949 0 0 0 4.44 1.344 8.006 8.006 0 0 0 3.776-.944 8.003 8.003 0 0 0 4.224-7.056V353.34c19.248-16.112 31.52-40.288 31.52-67.288 0-48.344-39.368-87.68-87.76-87.68zM432 456.388l-35.56-23.704a7.993 7.993 0 0 0-8.872 0L352 456.388v-92.2c9.768 4.992 20.56 8.224 32 9.232v27.248c0 4.416 3.576 8 8 8s8-3.584 8-8v-27.272c11.448-1.072 22.248-4.384 32-9.44v92.432zm-40.24-98.568c-39.568 0-71.76-32.192-71.76-71.76 0-39.52 32.184-71.68 71.76-71.68 39.576 0 71.768 32.16 71.768 71.68-.008 39.568-32.2 71.76-71.768 71.76z"/><path d="M391.736 241.004c-4.424 0-8 3.584-8 8s3.576 8 8 8c16.04 0 29.096 13.048 29.096 29.088s-13.056 29.088-29.096 29.088c-4.424 0-8 3.584-8 8s3.576 8 8 8c24.864 0 45.096-20.224 45.096-45.088 0-24.856-20.232-45.088-45.096-45.088zM135.688 282.436a8.016 8.016 0 0 0-6.464-5.448l-26.72-3.872-11.976-24.232a7.994 7.994 0 0 0-7.168-4.456h-.008a7.977 7.977 0 0 0-7.168 4.472l-11.896 24.216-26.72 3.872a8.014 8.014 0 0 0-6.464 5.448 7.987 7.987 0 0 0 2.024 8.2l19.312 18.832-4.56 26.568a8.002 8.002 0 0 0 3.176 7.824 7.978 7.978 0 0 0 4.704 1.528 8.087 8.087 0 0 0 3.72-.912l23.88-12.536 23.968 12.536a7.997 7.997 0 0 0 11.584-8.448l-4.56-26.576 19.304-18.824a7.972 7.972 0 0 0 2.032-8.192zm-35.512 18.504a8 8 0 0 0-2.296 7.08l2.536 14.776-13.352-6.984a7.975 7.975 0 0 0-3.704-.912c-1.28 0-2.552.304-3.72.912l-13.248 6.96 2.528-14.752a7.993 7.993 0 0 0-2.296-7.08l-10.712-10.448 14.832-2.152a8.011 8.011 0 0 0 6.032-4.392l6.6-13.432 6.648 13.448a7.998 7.998 0 0 0 6.024 4.376l14.832 2.152-10.704 10.448zM263.688 282.436a8.016 8.016 0 0 0-6.464-5.448l-26.72-3.872-11.976-24.232a7.994 7.994 0 0 0-7.168-4.456h-.008a7.977 7.977 0 0 0-7.168 4.472l-11.896 24.216-26.712 3.872a8.014 8.014 0 0 0-6.464 5.448 7.987 7.987 0 0 0 2.024 8.2l19.312 18.832-4.56 26.568a8.002 8.002 0 0 0 3.176 7.824 7.978 7.978 0 0 0 4.704 1.528 8.087 8.087 0 0 0 3.72-.912l23.88-12.536 23.968 12.536a7.984 7.984 0 0 0 8.416-.624 7.997 7.997 0 0 0 3.168-7.824l-4.56-26.576 19.304-18.824a8.002 8.002 0 0 0 2.024-8.192zm-35.512 18.504a8 8 0 0 0-2.296 7.08l2.536 14.776-13.352-6.984a7.975 7.975 0 0 0-3.704-.912c-1.28 0-2.552.304-3.72.912l-13.248 6.96 2.528-14.752a7.993 7.993 0 0 0-2.296-7.08l-10.712-10.448 14.832-2.152a8.011 8.011 0 0 0 6.032-4.392l6.6-13.432 6.648 13.448a7.998 7.998 0 0 0 6.024 4.376l14.832 2.152-10.704 10.448zM56 72.668h128c4.416 0 8-3.584 8-8s-3.584-8-8-8H56c-4.416 0-8 3.584-8 8s3.584 8 8 8zM56 120.668h208c4.424 0 8-3.584 8-8s-3.576-8-8-8H56c-4.416 0-8 3.584-8 8s3.584 8 8 8zM56 168.668h128c4.416 0 8-3.584 8-8s-3.584-8-8-8H56c-4.416 0-8 3.584-8 8s3.584 8 8 8zM272 208.668c0-4.416-3.576-8-8-8H56c-4.416 0-8 3.584-8 8s3.584 8 8 8h208c4.424 0 8-3.584 8-8z"/></svg>