<svg fill="#333b4f" xmlns="http://www.w3.org/2000/svg" width="181" height="181" viewBox="0 0 45.22 45.22" xml:space="preserve" stroke="#333b4f"><circle cx="22.61" cy="5.02" r="3.55"/><path d="M26.44 12.68a3.9 3.9 0 0 0-7.65 0 6.41 6.41 0 0 1 7.65 0zM35.3 29.4a1.96 1.96 0 0 0-2.78.18l-2.8 3.18a1.96 1.96 0 1 0 2.95 2.6l2.8-3.19c.72-.81.64-2.05-.18-2.77zM32.67 10.91a1.96 1.96 0 0 0-2.95 2.6l2.8 3.18a1.96 1.96 0 1 0 2.95-2.6l-2.8-3.18zM22.63 23.52h-.04a4.43 4.43 0 0 0-4.37 4.94l2.02 13.04c.14 1.23 1.15 2.25 2.37 2.25 1.23 0 2.23-1 2.37-2.24L27 28.45a4.43 4.43 0 0 0-4.37-4.93z"/><circle cx="22.61" cy="18.08" r="4.33"/><path d="M41.22 17.5h-.03A4.03 4.03 0 0 0 37.2 22l1.84 11.89c.12 1.12 1.04 2.04 2.15 2.04 1.12 0 2.03-.92 2.16-2.04l1.83-11.88a4.03 4.03 0 0 0-3.97-4.5z"/><circle cx="41.2" cy="12.56" r="3.94"/><path d="M9.93 29.4a1.96 1.96 0 0 1 2.77.18l2.8 3.18a1.97 1.97 0 0 1-2.95 2.6l-2.8-3.19a1.96 1.96 0 0 1 .18-2.77zM12.55 10.91a1.97 1.97 0 0 1 2.95 2.6l-2.8 3.18a1.96 1.96 0 1 1-2.95-2.6l2.8-3.18zM4 17.5h.04A4.03 4.03 0 0 1 8 22L6.17 33.89c-.12 1.12-1.04 2.05-2.15 2.05-1.12 0-2.03-.92-2.16-2.04L.02 22A4.03 4.03 0 0 1 4 17.5z"/><circle cx="4.02" cy="12.56" r="3.94"/></svg>