<svg height="177" width="177" version="1.1" id="_x32_" xmlns="http://www.w3.org/2000/svg" viewBox="0 0 512 512" xml:space="preserve" fill="#000" stroke="#000" stroke-width=".01"><g id="SVGRepo_iconCarrier"><style>.st0{fill:#333b4f}</style><path class="st0" d="M255.37 141.05a78.83 78.83 0 0 0-21.54 15.35l-65.08 65.1.02.01c-.19.19-.38.34-.56.53a23.5 23.5 0 1 0 33.23 33.23l35.8-35.8a77.81 77.81 0 0 0 18.07 4.25c7.94.88 15.4.55 22.02-.39 16.17-2.29 14.47-1.62 23.85-4.7 9.35-3.07 19.86-9.35 19.86-9.35l6.36 6.35c.7.68 16.92 16.93 25.2 25.19 1.46 1.47 2.7 2.68 3.54 3.55.95 1 2.02 1.71 2.68 2.68l41.28 41.28c11.9-13.35 25.48-33.24 23.8-56.06L320.77 129.14s-35.7-2.55-65.4 11.9zM261.12 394.36a23.4 23.4 0 0 0-33.1 0l-6.8 6.8a23.39 23.39 0 0 0-33.1-33.06 23.39 23.39 0 1 0-33.1-33.09 23.4 23.4 0 1 0-33.08-33.08l-20.46 20.45a23.4 23.4 0 0 0 33.08 33.1 23.39 23.39 0 1 0 33.1 33.08 23.4 23.4 0 1 0 33.08 33.1l6.8-6.82a23.4 23.4 0 0 0 33.1 33.08l20.48-20.46a23.41 23.41 0 0 0 0-33.1zM507.99 178.28 387.54 57.82a13.68 13.68 0 0 0-19.34 0l-38.63 38.63a13.67 13.67 0 0 0 0 19.33l120.46 120.46c5.33 5.35 14 5.35 19.33 0l38.63-38.64a13.63 13.63 0 0 0 0-19.32zm-34.34 26.71a14.7 14.7 0 1 1-20.77-20.78 14.7 14.7 0 0 1 20.77 20.78zM182.42 99.86l-38.63-38.63a13.67 13.67 0 0 0-19.33 0L4 181.7a13.66 13.66 0 0 0 0 19.32l38.63 38.64c5.33 5.33 14 5.33 19.33 0L182.42 119.2a13.66 13.66 0 0 0 0-19.34zM59.12 208.4a14.7 14.7 0 1 1-20.76-20.78 14.7 14.7 0 0 1 20.76 20.78z"/><path class="st0" d="m397.53 312.8-7.47-7.47-72.5-72.51-4.9 2.16-5.3 1.92-.4.12c-.93.3-9.68 2.97-26.92 5.41a107.02 107.02 0 0 1-26.9.44c-3.47-.39-6.9-.95-10.3-1.7l-27.76 27.75a42.85 42.85 0 0 1-62.19-1.78l-.17-.2a42.84 42.84 0 0 1-8.26-42.46l10.68-16.61-.02-.02 65.08-65.08c2.64-2.64 5.42-5.1 8.31-7.43-20.28-3.98-37.3-2.8-37.3-2.8L88.1 235.68c-1.39 18.99 11.65 39.8 20.93 51.95a42.7 42.7 0 0 1 59.64.65 42.34 42.34 0 0 1 11.58 21.5 42.48 42.48 0 0 1 33.08 33.1 42.35 42.35 0 0 1 30.74 25.39 42.54 42.54 0 0 1 30.69 12.45 42.72 42.72 0 0 1 0 60.37l-6.81 6.82 3.4 3.41a23.4 23.4 0 1 0 33.1-33.09l6.81 6.83a23.4 23.4 0 0 0 33.09-33.1 23.38 23.38 0 0 0 33.09 0 23.38 23.38 0 0 0 0-33.09 23.38 23.38 0 0 0 33.08 0 23.37 23.37 0 0 0 0-33.08l-12.98-12.98z"/></g></svg>