<svg viewBox="0 0 24 24" fill="none" xmlns="http://www.w3.org/2000/svg"><path fill-rule="evenodd" clip-rule="evenodd" d="M3.38 5.08C3 5.62 3 7.22 3 10.42v1.57c0 5.64 4.24 8.38 6.9 9.54.72.31 1.08.47 2.1.47s1.38-.16 2.1-.47c2.66-1.16 6.9-3.9 6.9-9.54v-1.57c0-3.2 0-4.8-.38-5.34S18.74 4.03 15.74 3l-.58-.2C13.6 2.27 12.81 2 12 2s-1.6.27-3.16.8l-.58.2c-3 1.03-4.5 1.54-4.88 2.08Zm11.68 5.42a.75.75 0 0 0-1.12-1l-3.01 3.37-.87-.97a.75.75 0 0 0-1.12 1l1.43 1.6a.75.75 0 0 0 1.12 0l3.57-4Z" fill="#333b4f"/></svg>