<svg width="75" height="75" viewBox="-6.4 -6.4 76.8 76.8" xmlns="http://www.w3.org/2000/svg" stroke-width="3.2" stroke="#053f61" fill="none"><rect x="-6.4" y="-6.4" width="76.8" height="76.8" rx="38.4" fill="#fff" stroke="none" stroke-width="0"/><path d="M52.46 26.64c-1.15.25-4.74.65-9.7-2.41a.5.5 0 0 0-.77.42s0 10 0 13.33c0 2.68.15 20.4-17.16 18.42 0 0-13.68-1-13.68-16.33 0 0 .19-13.8 16.42-15a.51.51 0 0 1 .55.5v7.03a.48.48 0 0 1-.42.49c-1.9.27-9.54 1.8-8.69 8.77a7.19 7.19 0 0 0 7.37 6.3s7 .78 7.32-9V7.94a.51.51 0 0 1 .5-.5h6.88a.5.5 0 0 1 .49.41c.36 2 2.42 9.82 10.8 10.31a.5.5 0 0 1 .48.49v7.51a.48.48 0 0 1-.39.48Z" stroke-linecap="round"/></svg>