<svg width="75" height="75" viewBox="0 0 24 24" fill="none" xmlns="http://www.w3.org/2000/svg" stroke="#505050" stroke-width=".12"><g fill="#505050"><path d="m2 22 1.4115-5.1309a9.8883 9.8883 0 0 1-1.3205-4.9495C2.081 6.4455 6.5264 2 11.99 2c2.6517 0 5.1415 1.028 7.0162 2.9034a9.8506 9.8506 0 0 1 2.9034 7.0162c0 5.4636-4.4455 9.9091-9.9096 9.9091-1.6632 0-3.2863-.4136-4.738-1.2095L2 22Zm5.4942-3.1651.3026.1813a8.2445 8.2445 0 0 0 4.1932 1.1492c4.5364 0 8.2363-3.6992 8.2363-8.2363 0-2.1973-.8567-4.2736-2.4095-5.8257a8.2064 8.2064 0 0 0-5.8268-2.42c-4.5466.0005-8.2452 3.6998-8.2452 8.2368 0 1.5522.4336 3.0748 1.2602 4.3853l.1914.3125-.8366 3.044 3.135-.8266-.0006-.0005Z"/><path fill-rule="evenodd" clip-rule="evenodd" d="M9.5202 7.7666c-.1814-.4136-.3828-.4236-.5542-.4236-.1512-.01-.3131-.01-.4845-.01-.1607 0-.433.0602-.6647.3125-.2322.2517-.8667.8467-.8667 2.0662 0 1.2201.8868 2.3994 1.008 2.5607.1205.1613 1.7134 2.7415 4.2339 3.74 2.0963.8266 2.52.6653 2.9737.6145.4532-.0502 1.4618-.5944 1.6733-1.1793.2015-.5743.2015-1.0783.1412-1.1794-.0603-.1004-.2322-.1613-.4738-.2924-.2523-.1206-1.4618-.7256-1.6934-.8065-.2322-.0804-.3935-.1206-.5548.1211-.1613.2523-.6352.8065-.7858.9678-.1418.1613-.2925.1814-.5347.0603-.2517-.1206-1.0482-.3829-1.9959-1.2296-.7362-.6558-1.2301-1.4718-1.3814-1.7134-.1406-.2523-.02-.3835.111-.5046.1112-.1105.2524-.2919.3735-.4331.1205-.1418.1607-.2523.2517-.4136.0804-.1613.0402-.3125-.0201-.433-.0608-.1111-.5341-1.3312-.7563-1.8252v.0006Z"/></g></svg>